<svg width="22" height="22" viewBox="0 0 22 22" fill="none" xmlns="http://www.w3.org/2000/svg">
<g opacity="0.8" clip-path="url(#clip0_901_6534)">
<path d="M14.6667 3.66663H7.33342C5.30837 3.66663 3.66675 5.30825 3.66675 7.33329V14.6666C3.66675 16.6917 5.30837 18.3333 7.33342 18.3333H14.6667C16.6918 18.3333 18.3334 16.6917 18.3334 14.6666V7.33329C18.3334 5.30825 16.6918 3.66663 14.6667 3.66663Z" stroke="#1C1C1C" stroke-width="2" stroke-linecap="round" stroke-linejoin="round"/>
<path d="M11 13.75C12.5188 13.75 13.75 12.5188 13.75 11C13.75 9.48122 12.5188 8.25 11 8.25C9.48122 8.25 8.25 9.48122 8.25 11C8.25 12.5188 9.48122 13.75 11 13.75Z" stroke="#1C1C1C" stroke-width="2" stroke-linecap="round" stroke-linejoin="round"/>
<path d="M15.125 6.875V6.876" stroke="#1C1C1C" stroke-width="2" stroke-linecap="round" stroke-linejoin="round"/>
</g>
<defs>
<clipPath id="clip0_901_6534">
<rect width="22" height="22" fill="white"/>
</clipPath>
</defs>
</svg>
