<svg width="98" height="32" viewBox="0 0 98 32" fill="none" xmlns="http://www.w3.org/2000/svg">
<path d="M29.7118 20.0142C30.5969 20.3951 31.0067 21.4234 30.6269 22.3109C30.0486 23.6625 29.2931 24.9152 28.3885 26.0407L30.6767 28.3354C31.3433 29.0036 31.3433 30.0876 30.6767 30.7558C30.0101 31.4241 28.9293 31.4241 28.2623 30.7558L25.9742 28.4615C24.8043 29.4067 23.4974 30.1895 22.0858 30.7777C21.1963 31.1483 20.1754 30.7255 19.8058 29.8335C19.4362 28.9416 19.8577 27.9184 20.7472 27.5477C21.7326 27.1372 22.6529 26.6053 23.4896 25.9698L21.1779 23.6519C20.5109 22.9833 20.5109 21.8997 21.1779 21.2311C21.8444 20.5628 22.9253 20.5628 23.5919 21.2311L25.9036 23.5493C26.5084 22.748 27.0199 21.8704 27.4212 20.9317C27.801 20.0442 28.8266 19.6334 29.7118 20.0142Z" fill="#1C5BD9"/>
<path d="M13.5243 3.73793C15.943 3.25554 18.4499 3.50311 20.7282 4.44938C23.0068 5.39565 24.954 6.99813 26.324 9.05412C27.694 11.1101 28.4254 13.5274 28.4254 16.0001C28.4254 16.966 29.2062 17.7489 30.1694 17.7489C31.1329 17.7489 31.9137 16.966 31.9137 16.0001C31.9137 12.8356 30.9778 9.74211 29.2246 7.11092C27.471 4.47972 24.9789 2.42894 22.0634 1.21795C19.1475 0.00692811 15.9391 -0.309926 12.8438 0.307452C9.74848 0.92483 6.90525 2.44869 4.67366 4.68631C2.44204 6.92397 0.922309 9.77488 0.306603 12.8786C-0.30907 15.9823 0.00689871 19.1993 1.21465 22.123C2.42237 25.0464 4.46762 27.5453 7.09169 29.3037C9.71575 31.0617 12.8009 32 15.9568 32C16.92 32 17.7008 31.2172 17.7008 30.2512C17.7008 29.2853 16.92 28.5024 15.9568 28.5024C13.4908 28.5024 11.0801 27.769 9.02964 26.3953C6.9792 25.0216 5.38109 23.0689 4.43734 20.7844C3.49363 18.5 3.24671 15.9861 3.7278 13.5608C4.20893 11.1358 5.39643 8.90802 7.1402 7.15954C8.88394 5.41106 11.1056 4.22032 13.5243 3.73793Z" fill="#1C1C1C"/>
<path d="M42.6471 29.9856C40.6682 29.9856 39.1202 29.4159 38.0036 28.2764C36.8866 27.1174 36.3281 25.5163 36.3281 23.4729V16.518C36.3281 16.027 36.4751 15.6438 36.769 15.3686C37.0827 15.0938 37.4942 14.9561 38.0036 14.9561C38.513 14.9561 38.9048 15.0938 39.1792 15.3686C39.4731 15.6438 39.6201 16.027 39.6201 16.518V23.4729C39.6201 24.6912 39.9433 25.6438 40.5898 26.3315C41.2362 26.9995 42.1377 27.3336 43.2936 27.3336C44.7437 27.3336 45.8996 26.8716 46.7619 25.9483C47.6238 25.0052 48.0548 23.7382 48.0548 22.1469V16.518C48.0548 16.027 48.2017 15.6438 48.4956 15.3686C48.7895 15.0938 49.1912 14.9561 49.7009 14.9561C50.2103 14.9561 50.612 15.0938 50.9059 15.3686C51.1998 15.6438 51.3467 16.027 51.3467 16.518V28.424C51.3467 28.915 51.2093 29.2982 50.9352 29.573C50.6607 29.8482 50.269 29.9856 49.7596 29.9856C49.2502 29.9856 48.8485 29.8482 48.5546 29.573C48.2802 29.2785 48.1431 28.8952 48.1431 28.424V27.2746C46.7128 29.0821 44.8808 29.9856 42.6471 29.9856Z" fill="#1C1C1C"/>
<path d="M56.1693 29.9856C55.6599 29.9856 55.2582 29.8482 54.9643 29.573C54.6704 29.2982 54.5234 28.915 54.5234 28.424V16.518C54.5234 16.027 54.6608 15.6438 54.935 15.3686C55.2289 15.0938 55.6206 14.9561 56.1106 14.9561C56.62 14.9561 57.0118 15.0938 57.2862 15.3686C57.5801 15.6438 57.7271 16.027 57.7271 16.518V17.7557C59.0006 16.0857 60.6757 15.251 62.7529 15.251H63.4287C63.9578 15.251 64.3694 15.3686 64.6633 15.6046C64.9766 15.8402 65.1335 16.1644 65.1335 16.577C65.1335 17.0093 64.9766 17.3431 64.6633 17.5791C64.3694 17.7949 63.9578 17.903 63.4287 17.903H62.4883C61.0579 17.903 59.9215 18.3452 59.079 19.2293C58.2365 20.0937 57.8151 21.2822 57.8151 22.7951V28.424C57.8151 28.8952 57.6586 29.2785 57.3449 29.573C57.051 29.8482 56.6592 29.9856 56.1693 29.9856Z" fill="#1C1C1C"/>
<path d="M73.7919 29.9856C72.1069 29.9856 70.6374 29.691 69.3833 29.1015C68.149 28.4925 67.1988 27.6282 66.5325 26.5081C65.8861 25.3884 65.5625 24.0624 65.5625 22.5298C65.5625 20.1526 66.2679 18.2961 67.6788 16.9602C69.0894 15.624 71.0489 14.9561 73.5567 14.9561C75.1046 14.9561 76.4763 15.2019 77.6714 15.6929C78.8668 16.1842 79.7973 16.8716 80.4635 17.7557C81.1297 18.6204 81.4628 19.6122 81.4628 20.7323C81.4628 21.6358 81.1884 22.3334 80.6398 22.8244C80.0912 23.3157 79.3172 23.5612 78.3182 23.5612H68.7955C68.7955 24.7795 69.2265 25.7226 70.0888 26.3905C70.9507 27.0585 72.1853 27.3923 73.7919 27.3923C74.7129 27.3923 75.526 27.2941 76.2312 27.0977C76.9366 26.9013 77.5929 26.5869 78.2005 26.1546C78.7686 25.7812 79.1996 25.5947 79.4935 25.5947C79.7482 25.5947 80.0127 25.7321 80.2872 26.0073C80.6006 26.3019 80.7574 26.6261 80.7574 26.9797C80.7574 27.353 80.591 27.6674 80.2579 27.9228C78.6117 29.2982 76.4565 29.9856 73.7919 29.9856ZM77.3188 21.1742C77.6519 21.1742 77.8967 21.1056 78.0536 20.9679C78.2101 20.8305 78.2885 20.5949 78.2885 20.2607C78.2885 19.455 77.8575 18.8069 76.9956 18.3155C76.1333 17.8048 74.987 17.5494 73.5567 17.5494C72.1069 17.5494 70.9606 17.8835 70.1181 18.5515C69.2756 19.1997 68.8545 20.0742 68.8545 21.1742H77.3188Z" fill="#1C1C1C"/>
<path d="M97.0052 27.5692C97.2797 27.8836 97.4168 28.2174 97.4168 28.5713C97.4168 28.9839 97.2405 29.3374 96.8876 29.632C96.6135 29.868 96.3196 29.9856 96.0059 29.9856C95.5555 29.9856 95.1341 29.7793 94.7423 29.3668L90.216 24.4453L85.6901 29.3668C85.298 29.7599 84.8769 29.9563 84.4262 29.9563C84.0539 29.9563 83.7504 29.8482 83.5151 29.632C83.182 29.3572 83.0156 29.0033 83.0156 28.5713C83.0156 28.1782 83.1527 27.8444 83.4268 27.5692L88.247 22.3235L83.7797 17.4611C83.466 17.1075 83.3095 16.7342 83.3095 16.3414C83.3095 15.909 83.4759 15.5555 83.809 15.2803C84.0835 15.0641 84.3675 14.9561 84.6614 14.9561C85.1708 14.9561 85.6311 15.1821 86.0427 15.6339L90.216 20.1724L94.3894 15.6339C94.8009 15.1821 95.2418 14.9561 95.712 14.9561C96.0257 14.9561 96.3196 15.0641 96.5937 15.2803C96.9466 15.5749 97.1229 15.9285 97.1229 16.3414C97.1229 16.7342 96.966 17.1075 96.6527 17.4611L92.1854 22.3235L97.0052 27.5692Z" fill="#1C1C1C"/>
</svg>
