<svg width="22" height="22" viewBox="0 0 22 22" fill="none" xmlns="http://www.w3.org/2000/svg">
<g opacity="0.8" clip-path="url(#clip0_901_6539)">
<path d="M20.1666 3.67499C19.2499 4.12416 18.3516 4.30657 17.4166 4.58249C16.389 3.42291 14.8655 3.35874 13.4016 3.90691C11.9377 4.45507 10.9788 5.79524 10.9999 7.33249V8.24916C8.02534 8.32524 5.37617 6.97041 3.66659 4.58249C3.66659 4.58249 -0.166915 11.3961 7.33325 14.6658C5.61725 15.8089 3.90584 16.5798 1.83325 16.4992C4.86559 18.1519 8.17017 18.7202 11.0311 17.8897C14.3128 16.9364 17.0096 14.477 18.0445 10.7929C18.3532 9.67244 18.5065 8.51486 18.5001 7.35266C18.4983 7.12441 19.8843 4.81166 20.1666 3.67407V3.67499Z" stroke="#1C1C1C" stroke-width="2" stroke-linecap="round" stroke-linejoin="round"/>
</g>
<defs>
<clipPath id="clip0_901_6539">
<rect width="22" height="22" fill="white"/>
</clipPath>
</defs>
</svg>
